<?xml version="1.0" encoding="UTF-8" standalone="no"?>
<!DOCTYPE svg PUBLIC "-//W3C//DTD SVG 1.1//EN" "http://www.w3.org/Graphics/SVG/1.1/DTD/svg11.dtd">
<svg width="100%" height="100%" viewBox="0 0 22 21" version="1.1" xmlns="http://www.w3.org/2000/svg" xmlns:xlink="http://www.w3.org/1999/xlink" xml:space="preserve" xmlns:serif="http://www.serif.com/" style="fill-rule:evenodd;clip-rule:evenodd;">
    <g transform="matrix(1,0,0,1,-0.5,0)">
        <path d="M12.721,2.406L12.72,2.406L11.874,3.358L11.5,3.778L11.127,3.358L10.28,2.406C8.282,0.153 5.097,-0.169 2.976,1.802C0.482,4.125 0.345,8.324 2.585,10.85L10.899,20.215C11.237,20.596 11.759,20.596 12.098,20.215L20.412,10.85C22.656,8.324 22.518,4.125 20.024,1.803L19.837,1.636L19.716,1.536L19.528,1.396L19.476,1.357C19.428,1.323 19.378,1.289 19.326,1.258L19.188,1.173L19.314,1.25C19.34,1.267 19.366,1.282 19.392,1.299C19.467,1.349 19.54,1.4 19.607,1.454L19.528,1.396L19.476,1.357L19.392,1.299L19.331,1.262L19.196,1.177L19.029,1.081L18.948,1.038L18.882,1.004L18.73,0.931L18.686,0.911L18.521,0.841L18.414,0.8L18.407,0.798L18.199,0.725L17.722,0.604L17.575,0.572L17.372,0.541L17.044,0.51L16.759,0.501L16.592,0.504L16.374,0.516L16.192,0.534L16.14,0.54L16.005,0.559L15.873,0.581L15.84,0.587L15.663,0.624L15.575,0.645L15.429,0.683L15.323,0.713L15.19,0.755L15.074,0.795L14.955,0.839L14.549,1.013L14.393,1.091L14.238,1.175L14.039,1.293L13.914,1.372L13.771,1.469L13.581,1.607L13.399,1.751L13.175,1.945L12.909,2.203L12.721,2.406ZM12.721,2.406C13.981,0.988 15.708,0.334 17.343,0.538C17.38,0.543 17.49,0.554 17.599,0.576C17.711,0.598 17.826,0.63 17.885,0.645C17.888,0.646 17.888,0.648 17.891,0.648C17.894,0.649 17.899,0.649 17.903,0.65C17.954,0.662 18.005,0.674 18.055,0.688C18.065,0.691 18.075,0.693 18.085,0.696C18.092,0.698 18.101,0.7 18.108,0.702C18.117,0.704 18.127,0.706 18.135,0.709C18.146,0.712 18.156,0.713 18.167,0.717C18.174,0.719 18.182,0.72 18.189,0.722C18.206,0.728 18.225,0.735 18.242,0.74C18.672,0.881 19.086,1.085 19.475,1.356C19.665,1.489 19.847,1.638 20.024,1.802L19.837,1.636L19.716,1.536L19.528,1.396L19.475,1.356L19.392,1.299L19.326,1.258L19.181,1.168L19.029,1.081L18.948,1.038L18.916,1.022L18.878,1.002L18.737,0.935L18.681,0.909L18.521,0.841L18.407,0.798L18.199,0.725L17.733,0.607L17.599,0.576L17.276,0.529L17.013,0.509L16.802,0.501L16.592,0.504L16.374,0.516L16.187,0.534L16.102,0.545L16.005,0.559L15.861,0.583L15.807,0.594L15.669,0.623L15.575,0.645L15.429,0.683L15.316,0.716L15.19,0.755L15.085,0.791L14.955,0.839L14.549,1.013L14.382,1.097L14.238,1.175L14.039,1.293L13.906,1.377L13.759,1.477L13.581,1.607L13.399,1.751L13.175,1.945L12.909,2.203L12.721,2.406Z" style="fill:none;fill-rule:nonzero;stroke:rgb(16,16,16);stroke-width:1px;"/>
    </g>
</svg>
